<svg id="Layer_1" data-name="Layer 1" xmlns="http://www.w3.org/2000/svg" viewBox="0 0 134 134"><defs><style>.cls-1{fill:gray;}</style></defs><path class="cls-1" d="M129,29.66v74.59c-2.41,6.93-7.36,9.34-14.55,9.29-32.28-.19-64.56-.08-96.85-.09C9.83,113.45,5,108.67,5,101q0-34,0-68c0-7.6,4.82-12.47,12.35-12.48q49.64,0,99.27,0a16.43,16.43,0,0,1,3.36.33C124.84,21.85,127.37,25.31,129,29.66Zm-15.7,76V41.13L67,76.72,20.68,41.11v64.54Zm-9.81-77.3H30.9a3.38,3.38,0,0,0,.49.69Q48.57,42.63,65.73,56.23c1.24,1,1.94.44,2.89-.31q15-11.88,30-23.71C100.11,31,101.6,29.85,103.49,28.35Z"/></svg>