<svg id="Layer_1" data-name="Layer 1" xmlns="http://www.w3.org/2000/svg" viewBox="0 0 134 134"><defs><style>.cls-1{fill:gray;}</style></defs><path class="cls-1" d="M66.31,128.64c-8.77,0-17.53.12-26.3,0C19.54,128.22,5.48,114.38,5.15,94c-.27-16.48-.1-33-.07-49.45C5.11,21,15.67,8.1,39.2,6.3a380.15,380.15,0,0,1,56.67.16c20.58,1.49,32,14.3,32.68,34.83.58,17.45.63,35,0,52.41-.81,22-14.86,34.83-37.11,34.94C83.05,128.67,74.68,128.64,66.31,128.64ZM116.5,67.8h-.1c0-8.93.25-17.87-.06-26.8-.45-13.12-7.06-21.8-20-22.42C76,17.6,55.4,18,35,19c-10,.48-16.79,7.62-17.14,17.65-.71,20.57-.69,41.21.05,61.79a18,18,0,0,0,17.43,17.5c18.86.94,37.83,1.83,56.65.82,18.33-1,24.21-8.58,24.52-26.92C116.6,82.5,116.5,75.15,116.5,67.8Z"/><path class="cls-1" d="M34.86,67.35c0-17.58,14.34-32.08,31.74-32,17.64,0,32.39,14.79,32.33,32.34C98.86,84.92,84,99.47,66.63,99.28A31.7,31.7,0,0,1,34.86,67.35Zm51.78,0c0-11.33-8.67-19.9-20.08-19.87-11,0-20.25,9.33-20.1,20.17.15,10.54,9.44,19.64,20.09,19.67A19.78,19.78,0,0,0,86.64,67.38Z"/><path class="cls-1" d="M107.26,35.27c-.55,4.07-3.06,6.86-7.8,6.68s-7.49-3-7.3-7.68S95.31,27.08,100,27C104.09,26.86,107.42,30.57,107.26,35.27Z"/></svg>