<svg id="Layer_1" data-name="Layer 1" xmlns="http://www.w3.org/2000/svg" viewBox="0 0 134 134"><defs><style>.cls-1{fill:#fff;}</style></defs><path class="cls-1" d="M24.41,68.42A33.52,33.52,0,0,0,29.93,65c5.79-4,17.87-5.76,28.05-5a48.18,48.18,0,0,1,13.33,2.73C74.65,64,77.11,65.41,82,68.2c4.73,2.68,7,4.12,8.89,5.92,3.92,3.83,6.13,8.34,8.24,12.64.86,1.74,1.36,3,1.56,3.53,1,2.55,1.09,3.63,1.92,6.45,1,3.24,1.07,2.71,2.46,7.07a43.42,43.42,0,0,1,1.78,6.34c.27,2.4,0,3.57.92,4.52s1.59.6,3.61,1.52c.6.26,2.2,1,2.48,2.06.4,1.54-2.09,3.34-7.08,6.94a31.88,31.88,0,0,1-7.22,3.89,8.35,8.35,0,0,1-2.86.56,8.84,8.84,0,0,1-3.68-.85c-2.11-.86-4-1.62-4.23-3.07-.24-1.23.76-2.36,1.35-3,1.67-1.9,4-1.07,5.89-3.2a4.38,4.38,0,0,0,.66-.91c.92-1.67.18-3.44.18-4.77a35.47,35.47,0,0,0-1.19-8.74c-.07-.29-.59-2-1.64-5.39-1.31-4.26-2-6.39-2.2-7a38.71,38.71,0,0,0-5.62-10,51.78,51.78,0,0,0-7.41-7.91A23.85,23.85,0,0,0,76.46,73a18.79,18.79,0,0,0-2.14-1.16,57.18,57.18,0,0,0-7.49-3C58,66.22,48.71,67,46.23,67.17a30,30,0,0,0-7,1.28c-1.34.43-2.06.78-7,3.36-6.33,3.32-8,4.24-9.67,6.22A12.48,12.48,0,0,0,20.4,82a6.12,6.12,0,0,0-.2,3.77,10.14,10.14,0,0,0,1,1.84c1.05,1.91,2.15,3.92,1.46,5.13a2.41,2.41,0,0,1-1.56,1c-3.07.92-6.25-1.23-8.81-3a13.91,13.91,0,0,1-3.13-3,5.77,5.77,0,0,1-.91-1.87,5,5,0,0,1-.15-1.06,8.36,8.36,0,0,0-2-5.07,8.08,8.08,0,0,1-2-3.38c-.19-1.6,1.15-3.69,2.75-3.9,0,0,1.82-.22,3.8,2.36.1.13.32.43.67.83.77.89,1.15,1.33,1.49,1.34.68,0,1-1.3,1.8-2.56,1-1.49,2.17-2.19,4.2-3.36C21.14,69.63,22,69.61,24.41,68.42Z"/><path class="cls-1" d="M58.06,24.06a44.21,44.21,0,0,1,3-4.57c2-2.92,3.07-4.37,4.33-5.85a29.55,29.55,0,0,1,6.16-5.8c3.1-2.08,5.72-3.85,9.1-3.42,4.51.58,7.64,4.7,8.66,7.34a17.82,17.82,0,0,1,.72,2.51,19.3,19.3,0,0,1,.35,5c-.13,3.94-.2,5.91-1.11,8.17a20.36,20.36,0,0,1-3.06,4.89,36.45,36.45,0,0,1-3.6,4c-4.45,4.35-6.7,6.55-10.37,7.71-1.52.49-3.41.6-7.19.81-4,.24-5.21-.06-6.21-.63a7.74,7.74,0,0,1-3.19-3.84c-.81-2-.45-4.19.3-8.52C56.62,28.17,57,26.26,58.06,24.06Z"/><path class="cls-1" d="M108.19,64.9a15.52,15.52,0,0,1-3.43,1C101,66.35,98,64.52,96,63.38A7.3,7.3,0,0,1,94,61.75a8.18,8.18,0,0,1-1.6-3.9,20.71,20.71,0,0,1,.35-8,43.16,43.16,0,0,1,2.61-9.44c4.27-9.87,12.72-15.68,16.92-16.79a22,22,0,0,1,5.66-.66,14.28,14.28,0,0,1,2.7.3,8.89,8.89,0,0,1,3.52,1.5,12.21,12.21,0,0,1,2.69,2,8.54,8.54,0,0,1,1.45,2.2,18.78,18.78,0,0,1,1.57,9.44,27.26,27.26,0,0,1-.66,3.63c-.79,3.49-1.24,5.45-2.52,7.33s-1.9,1.49-4.53,4.11c-2.32,2.3-2.92,3.68-4.24,5.28C116.28,60.76,113.44,63.22,108.19,64.9Z"/></svg>