<svg id="Layer_1" data-name="Layer 1" xmlns="http://www.w3.org/2000/svg" viewBox="0 0 134 134"><path d="M14.54,84.3c-.13-1.89-.44-8.69-1.1-12.75a3.32,3.32,0,0,0-1.09-2.16A3.48,3.48,0,0,0,9.71,69c-2.4.39-3.1,2.33-4.21,2-.91-.3-1.23-1.85-1.34-2.34a4.87,4.87,0,0,1,0-1.86c.11-.63.43-1.79,2.69-4.36,2.49-2.82,2.66-2.78,3-3.58.44-1.12.35-1.86,1.11-3.71a16.06,16.06,0,0,1,.83-1.75,16.62,16.62,0,0,1,7.16-6,2,2,0,0,1,1.52-.22c.15,0,.66.29,1.17,1.25.79,1.49.33,3.25,0,4.65-1.2,5.78-1.39,7.31-1.05,9.15a14,14,0,0,0,.55,1.93c1.51,4.64,1.6,8.49,2,12.85.57,5.78.86,8.7,1.91,12a34.12,34.12,0,0,0,8.18,13.42s9.09,9.52,22.24,11.29a50.83,50.83,0,0,0,8.62.26,35.63,35.63,0,0,0,4.76-.57,34.79,34.79,0,0,0,7.86-2.6c3-1.43,5.63-3.18,13.41-9.91,5.41-4.68,8.11-7,9-8.15,1.95-2.41,6.16-7.6,7.56-15.08,1.78-9.45,2.08-10.32,4-14.59a8.59,8.59,0,0,0,.65-4.64c-.16-1.49-.58-1.51-.95-3.36s-.73-3.57.08-4.91c1.42-2.38,5.32-2.09,6.17-2a3.14,3.14,0,0,1,1.93.61c.89.74.75,1.74,1.18,3,.73,2.2,2,1.79,3.3,4.2,1.07,1.95.42,2.52,1.75,5.18a17.93,17.93,0,0,0,1.62,2.61c2,2.75,3.41,3,3.5,4.42A3,3,0,0,1,128.19,71c-1.35.49-3.08-.72-4.84-1.94-1.32-.91-1.41-1.25-1.87-1.21-1.08.09-1.61,2-3.35,8-1.62,5.52-1.67,5.57-2,7.06-1,4.15-.77,4.55-1.46,6.53-.8,2.31-2,4-4.26,7.13a61.85,61.85,0,0,1-8.19,9.48c-1.25,1.17-3,2.55-6.49,5.26-5.84,4.56-8.76,6.84-10.28,7.64-3.74,2-7.11,2.57-13.86,3.74-5.83,1-8.75,1.53-12.78,1.39a44.45,44.45,0,0,1-18.05-4.76c-4.14-1.94-10.22-4.78-15.92-11.2a39.89,39.89,0,0,1-9.31-17.6A49.11,49.11,0,0,1,14.54,84.3Z"/><path d="M101.53,41.09a61.42,61.42,0,0,0-.26-7.73c-.73-3.86-1.88-3.72-2.63-7.64-.79-4.18.44-4.77-.74-6.79-1.38-2.35-3.32-2-5.45-5.21-1.19-1.77-.9-2.35-1.8-3-2.11-1.6-6.31-.36-9,1.48-5.84,4-7.44,13.08-6.65,18.77.17,1.25.59,3.27.88,6.73.27,3.17.12,3.67.31,6.54A38.94,38.94,0,0,0,78,54.64c1.14,3.39,1.82,5.41,3.93,6.75a8.24,8.24,0,0,0,7.38.73c.22-.1.18-.1,3.86-2.3L95,58.7c.94-.66,2-1.7,4.39-7.28a28.24,28.24,0,0,0,1.85-4.92A23.77,23.77,0,0,0,101.53,41.09Z"/><path d="M57,32a25.55,25.55,0,0,0-1-6.05c-.9-3-1.56-3.2-2.72-6.86-.9-2.82-.75-3.46-1.69-4.6a6.62,6.62,0,0,0-4.79-2.34,7,7,0,0,0-4.12,1.65,14.33,14.33,0,0,0-3,3.2c-1.38,1.79-2.28,3.19-3,4.34-3.61,5.53-4.26,6.31-4.91,8.13a10,10,0,0,0-.4,5.29h0a5.92,5.92,0,0,1-.59,4.19c-.83,1.81.59,5.36,6.8,17.72,1.36,2.71,2.39,4.68,4.6,5.64,1.38.59,3.78,1,4.86,0,.55-.53.5-1.06,1.42-1.94a6.75,6.75,0,0,1,1.24-.91c2.26-1.33,4.16-5.2,4.59-6.08,1.05-2.15.42-1.76,1.81-5.24a9.64,9.64,0,0,0,.88-4.69.34.34,0,0,0,0-.11C56.56,40,57.15,35.5,57,32Z"/></svg>