<svg id="Layer_1" data-name="Layer 1" xmlns="http://www.w3.org/2000/svg" viewBox="0 0 134 134"><path d="M13.44,85.86c-.75-1.69-.71-1.87-1.09-2.16a3.49,3.49,0,0,0-2.64-.43c-2.4.4-3.1,2.34-4.21,2-.91-.3-1.23-1.85-1.34-2.35a4.81,4.81,0,0,1,0-1.85c.11-.64.43-1.79,2.69-4.36,2.49-2.82,2.66-2.78,3-3.58.44-1.13.35-1.86,1.11-3.72a18.13,18.13,0,0,1,.83-1.75,16.69,16.69,0,0,1,7.16-6,2.09,2.09,0,0,1,1.52-.22c.15.05.66.29,1.17,1.26.79,1.49.33,3.25,0,4.64-1.2,5.78-1.39,7.31-1.05,9.15a13.22,13.22,0,0,0,.55,1.93c2.08,6.41.43,8.48,2,12.86,2.16,5.91,8,9.76,9.79,11l.3.2s9.09,9.52,22.24,11.29a50.83,50.83,0,0,0,8.62.26,35.63,35.63,0,0,0,4.76-.57,46.87,46.87,0,0,0,7.86-2.6c11.41-5.24,17.12-7.86,20.52-12.13,5.48-6.88,11.06-21.82,12.54-23.09a2.67,2.67,0,0,0,.9-1.06,8.61,8.61,0,0,0,.65-4.64c-.16-1.5-.58-1.51-.95-3.37s-.73-3.56.08-4.91c1.42-2.38,5.32-2.08,6.17-2a3.14,3.14,0,0,1,1.93.61c.89.75.75,1.74,1.18,3,.73,2.2,2,1.78,3.3,4.19,1.07,2,.42,2.53,1.75,5.19a18.06,18.06,0,0,0,1.62,2.6c2,2.75,3.41,3,3.5,4.43a3,3,0,0,1-1.74,2.79c-1.35.48-3.08-.72-4.84-1.94-1.11-.78-1.35-1.13-1.68-1.2h-.19c-1.5,0-6.34,9.19-6.84,10.13a54.22,54.22,0,0,1-4.26,7.13,69.13,69.13,0,0,1-5.41,6.7c-.86.91-1.74,1.8-2.78,2.78-6.4,6-10.68,10.05-16.77,12.9-4.12,1.94-7.39,2.62-13.86,3.74-5.83,1-8.75,1.53-12.78,1.39a44.45,44.45,0,0,1-18.05-4.76c-4.14-1.94-10.22-4.78-15.92-11.2a39.89,39.89,0,0,1-9.31-17.6c0-.06-.13-.34-.29-.72C14.43,87.85,14.17,87.51,13.44,85.86Z"/><path d="M101.53,41.09a61.42,61.42,0,0,0-.26-7.73c-.73-3.86-1.88-3.72-2.63-7.64-.79-4.18.44-4.77-.74-6.79-1.38-2.35-3.32-2-5.45-5.21-1.19-1.77-.9-2.35-1.8-3-2.11-1.6-6.31-.36-9,1.48-5.84,4-7.44,13.08-6.65,18.77.17,1.25.59,3.27.88,6.73.27,3.17.12,3.67.31,6.54A38.94,38.94,0,0,0,78,54.64c1.14,3.39,1.82,5.41,3.93,6.75a8.24,8.24,0,0,0,7.38.73c.22-.1.18-.1,3.86-2.3L95,58.7c.94-.66,2-1.7,4.39-7.28a28.24,28.24,0,0,0,1.85-4.92A23.77,23.77,0,0,0,101.53,41.09Z"/><path d="M57,32a25.55,25.55,0,0,0-1-6.05c-.9-3-1.56-3.2-2.72-6.86-.9-2.82-.75-3.46-1.69-4.6a6.62,6.62,0,0,0-4.79-2.34,7,7,0,0,0-4.12,1.65,14.33,14.33,0,0,0-3,3.2c-1.38,1.79-2.28,3.19-3,4.34-3.61,5.53-4.26,6.31-4.91,8.13a10,10,0,0,0-.4,5.29h0a5.92,5.92,0,0,1-.59,4.19c-.83,1.81.59,5.36,6.8,17.72,1.36,2.71,2.39,4.68,4.6,5.64,1.38.59,3.78,1,4.86,0,.55-.53.5-1.06,1.42-1.94a6.75,6.75,0,0,1,1.24-.91c2.26-1.33,4.16-5.2,4.59-6.08,1.05-2.15.42-1.76,1.81-5.24a9.64,9.64,0,0,0,.88-4.69.34.34,0,0,0,0-.11C56.56,40,57.15,35.5,57,32Z"/></svg>