<svg id="Layer_1" data-name="Layer 1" xmlns="http://www.w3.org/2000/svg" viewBox="0 0 134 134"><defs><style>.cls-1{fill:#fff;}</style></defs><path class="cls-1" d="M14.47,84.32c-.13-1.89-.44-8.7-1.1-12.76a3.25,3.25,0,0,0-1.1-2.16A3.46,3.46,0,0,0,9.64,69c-2.41.39-3.11,2.34-4.22,2-.91-.3-1.24-1.86-1.34-2.35a4.87,4.87,0,0,1,0-1.86c.11-.64.43-1.79,2.7-4.36,2.48-2.83,2.66-2.79,3-3.59.45-1.13.36-1.86,1.12-3.72a15.87,15.87,0,0,1,.83-1.75,16.66,16.66,0,0,1,7.17-6,2.09,2.09,0,0,1,1.52-.22c.15,0,.66.29,1.17,1.26.79,1.49.33,3.25,0,4.65-1.2,5.78-1.39,7.32-1,9.16a13.59,13.59,0,0,0,.55,1.93c1.51,4.65,1.6,8.51,2,12.87C23.68,82.73,24,85.66,25,89a34.13,34.13,0,0,0,8.19,13.43s9.11,9.54,22.28,11.31a50.83,50.83,0,0,0,8.62.26,35.57,35.57,0,0,0,4.77-.57,34,34,0,0,0,7.87-2.61c3-1.42,5.64-3.17,13.43-9.91,5.41-4.69,8.12-7,9-8.17,2-2.41,6.17-7.61,7.58-15.09,1.77-9.47,2.07-10.34,4-14.61a8.73,8.73,0,0,0,.66-4.65c-.17-1.5-.58-1.51-1-3.37s-.72-3.57.09-4.91c1.42-2.39,5.33-2.09,6.18-2a3.2,3.2,0,0,1,1.93.61c.89.75.75,1.74,1.18,3,.73,2.21,2,1.79,3.31,4.2,1.07,2,.41,2.53,1.74,5.19a18.25,18.25,0,0,0,1.63,2.62c2,2.75,3.42,3,3.5,4.42a3,3,0,0,1-1.74,2.8c-1.35.48-3.08-.72-4.84-1.94-1.32-.92-1.42-1.26-1.88-1.22-1.08.1-1.61,2.06-3.35,8-1.62,5.53-1.68,5.58-2,7.07-1,4.16-.77,4.55-1.46,6.54-.79,2.32-2,4-4.27,7.13a61,61,0,0,1-8.2,9.5c-1.25,1.17-3,2.55-6.49,5.27-5.85,4.56-8.77,6.84-10.29,7.65-3.75,2-7.13,2.57-13.88,3.75-5.84,1-8.77,1.53-12.8,1.39a44.66,44.66,0,0,1-18.07-4.77c-4.15-1.94-10.24-4.79-15.94-11.21a39.92,39.92,0,0,1-9.33-17.63A49.09,49.09,0,0,1,14.47,84.32Z"/><path class="cls-1" d="M101.57,41.05a64.44,64.44,0,0,0-.25-7.73c-.73-3.87-1.89-3.73-2.64-7.65-.79-4.19.44-4.78-.74-6.81-1.38-2.35-3.32-2-5.45-5.21-1.2-1.78-.91-2.35-1.81-3-2.12-1.6-6.32-.37-9,1.48-5.85,4-7.45,13.09-6.66,18.79.17,1.25.59,3.28.88,6.75.28,3.16.12,3.67.32,6.54A38.58,38.58,0,0,0,78,54.62C79.11,58,79.79,60,81.9,61.39a8.3,8.3,0,0,0,7.39.73c.22-.11.18-.1,3.87-2.31L95,58.69C96,58,97,57,99.42,51.4a27.73,27.73,0,0,0,1.85-4.93A23.22,23.22,0,0,0,101.57,41.05Z"/><path class="cls-1" d="M57,31.91a25.12,25.12,0,0,0-1-6.07c-.89-3-1.56-3.2-2.72-6.86-.9-2.82-.75-3.47-1.69-4.6A6.59,6.59,0,0,0,46.72,12a7.06,7.06,0,0,0-4.12,1.66,14.24,14.24,0,0,0-3,3.21c-1.39,1.79-2.29,3.18-3,4.34-3.61,5.54-4.26,6.31-4.92,8.14a10,10,0,0,0-.4,5.3h0a6,6,0,0,1-.6,4.2c-.83,1.8.6,5.36,6.81,17.73,1.36,2.72,2.39,4.7,4.61,5.65,1.38.6,3.79,1,4.86,0,.55-.54.51-1.07,1.43-1.94a6.18,6.18,0,0,1,1.24-.92c2.26-1.33,4.16-5.21,4.59-6.09,1-2.15.42-1.76,1.82-5.25a9.86,9.86,0,0,0,.88-4.69c0-.05,0-.08,0-.11C56.55,40,57.14,35.45,57,31.91Z"/></svg>