<svg id="Layer_1" data-name="Layer 1" xmlns="http://www.w3.org/2000/svg" viewBox="0 0 134 134"><defs><style>.cls-1{fill:gray;}</style></defs><path class="cls-1" d="M5,66.44A62,62,0,1,1,66.79,129,62,62,0,0,1,5,66.44ZM60.78,37.67c-12.68,0-22.53.93-32.12,3.77-3.53,1-5.32,4.08-4.43,7.28s4,5,7.66,4.05c1.28-.33,2.54-.75,3.84-1,23.64-4.41,46.58-3.11,68.28,8.38a5.74,5.74,0,0,0,7.84-2.41,5.83,5.83,0,0,0-2.1-7.79,44.5,44.5,0,0,0-4.17-2.3C90.59,40.32,74.57,37.83,60.78,37.67ZM56.52,68.92a81,81,0,0,1,28.56,5c3.87,1.48,7.55,3.48,11.27,5.32a5,5,0,0,0,6.78-1.66,4.9,4.9,0,0,0-1.52-6.64,18.07,18.07,0,0,0-1.68-1,80.41,80.41,0,0,0-25.82-9.24,90.71,90.71,0,0,0-41.63,1.69c-3.35,1-4.9,3.52-4,6.38s3.43,4,6.71,3.09A79.07,79.07,0,0,1,56.52,68.92ZM56,79.32A98,98,0,0,0,34.34,82c-2.58.58-3.9,2.5-3.46,4.72s2.52,3.53,5.17,3c1.49-.29,3-.65,4.46-.92,12.18-2.21,24.36-2.64,36.3,1.16,4.55,1.45,8.84,3.77,13.21,5.79,2,.94,4.1.64,5.31-1a3.81,3.81,0,0,0-.67-5.33,11.84,11.84,0,0,0-1.81-1.2C81.79,81.9,69.8,79.22,56,79.32Z"/></svg>