<svg id="Layer_1" data-name="Layer 1" xmlns="http://www.w3.org/2000/svg" viewBox="0 0 134 134"><path d="M42.1,95.63a26,26,0,0,1-16.46-6.94,24.87,24.87,0,0,1-6.91-10.87,26.76,26.76,0,0,0,11.18-.48A25.74,25.74,0,0,1,13.82,66.13a25,25,0,0,1-4-14.1,26.66,26.66,0,0,0,11.35,3.09c-6.39-4.69-10.09-10.69-11-18.26A24.84,24.84,0,0,1,13.43,21.2C27.22,37.41,44.61,46.31,65.89,47.81c-.15-1.4-.36-2.7-.43-4-.53-10.34,3.66-18.29,12.39-23.74a25.31,25.31,0,0,1,30.22,3.13,3,3,0,0,0,3.24.9,54.55,54.55,0,0,0,12.84-5c.41-.23.84-.44,1.5-.79a27.67,27.67,0,0,1-10.45,14c1.5-.27,3-.49,4.5-.83s3.12-.82,4.65-1.31,2.94-1,4.4-1.57l.25.28c-2,2.38-4,4.86-6.13,7.12a61.42,61.42,0,0,1-5.56,4.88,2.06,2.06,0,0,0-.88,1.82,71.64,71.64,0,0,1-7.07,33.35C100,95.63,85.17,109,64.1,114.89a73.65,73.65,0,0,1-28.23,2.17,71.87,71.87,0,0,1-30.3-10.49c-.12-.08-.23-.18-.57-.46C18.88,107.36,31.21,104,42.1,95.63Z"/></svg>